<svg aria-hidden="true" fill="black" style="position: absolute; width: 0; height: 0; overflow: hidden;" version="1.1" xmlns="http://www.w3.org/2000/svg" xmlns:xlink="http://www.w3.org/1999/xlink"><defs><symbol id="icon-hugeicons_gas-stove" viewBox="0 0 32 32">
    <path  d="M8 25.333h5.333M24 25.345v-0.012M2.667 8c0-4.413 0.92-5.333 5.333-5.333h16c4.413 0 5.333 0.92 5.333 5.333v16c0 4.413-0.92 5.333-5.333 5.333h-16c-4.413 0-5.333-0.92-5.333-5.333v-16z"></path>
    <path  d="M16 18.667c2.945 0 5.333-2.388 5.333-5.333s-2.388-5.333-5.333-5.333-5.333 2.388-5.333 5.333c0 2.946 2.388 5.333 5.333 5.333z"></path>
    <path  d="M20.667 13.333h2M16 18v2M11.333 13.333h-2M16 8.667v-2"></path>
    </symbol></defs>
</svg>